<svg xmlns="http://www.w3.org/2000/svg" width="1200" height="820" viewBox="0 0 1200 820" role="img" aria-label="Discovery coverage charts"><defs><pattern id="grid" width="40" height="40" patternUnits="userSpaceOnUse"><path d="M 40 0 L 0 0 0 40" fill="none" stroke="#1e293b" stroke-width="0.5"/></pattern></defs><rect width="100%" height="100%" fill="#020617"/><rect width="100%" height="100%" fill="url(#grid)" opacity="0.45"/><text x="50" y="54" fill="#e2e8f0" font-size="28" font-family="JetBrains Mono, monospace" font-weight="700">Discovery coverage snapshot</text><text x="50" y="82" fill="#94a3b8" font-size="14" font-family="JetBrains Mono, monospace">Known landscape only: processed vs pending from current discovered frontier, plus recent run trend</text><rect x="40" y="110" width="360" height="300" rx="18" fill="#0f172a" stroke="#1e293b"/><text x="64" y="148" fill="#e2e8f0" font-size="18" font-family="JetBrains Mono, monospace">Current known-landscape coverage</text><text x="64" y="172" fill="#94a3b8" font-size="12" font-family="JetBrains Mono, monospace">processed / (processed + pending)</text><circle cx="220" cy="270" r="95" fill="none" stroke="#1e293b" stroke-width="18"/><circle cx="220" cy="270" r="95" fill="none" stroke="#34d399" stroke-width="18" stroke-linecap="round" transform="rotate(-90 220 270)" stroke-dasharray="419.94 596.90"/><text x="220" y="264" text-anchor="middle" fill="#e2e8f0" font-size="34" font-family="JetBrains Mono, monospace" font-weight="700">70.4%</text><text x="220" y="294" text-anchor="middle" fill="#94a3b8" font-size="13" font-family="JetBrains Mono, monospace">of known frontier processed</text><text x="64" y="355" fill="#e2e8f0" font-size="13" font-family="JetBrains Mono, monospace">Processed: 1749</text><rect x="150" y="343" width="220" height="12" rx="6" fill="#1e293b"/><rect x="150" y="343" width="154" height="12" rx="6" fill="#34d399"/><text x="64" y="385" fill="#e2e8f0" font-size="13" font-family="JetBrains Mono, monospace">Pending:   737</text><rect x="150" y="373" width="220" height="12" rx="6" fill="#1e293b"/><rect x="150" y="373" width="65" height="12" rx="6" fill="#fbbf24"/><rect x="430" y="110" width="730" height="300" rx="18" fill="#0f172a" stroke="#1e293b"/><text x="454" y="148" fill="#e2e8f0" font-size="18" font-family="JetBrains Mono, monospace">Recent run trend</text><text x="454" y="172" fill="#94a3b8" font-size="12" font-family="JetBrains Mono, monospace">processed repos per run and remaining pending frontier after each run</text><line x1="470" y1="205.0" x2="1130" y2="205.0" stroke="#1e293b" stroke-width="1"/><line x1="470" y1="245.0" x2="1130" y2="245.0" stroke="#1e293b" stroke-width="1"/><line x1="470" y1="285.0" x2="1130" y2="285.0" stroke="#1e293b" stroke-width="1"/><line x1="470" y1="325.0" x2="1130" y2="325.0" stroke="#1e293b" stroke-width="1"/><line x1="470" y1="365.0" x2="1130" y2="365.0" stroke="#1e293b" stroke-width="1"/><line x1="470.0" y1="205" x2="470.0" y2="365" stroke="#1e293b" stroke-width="1" opacity="0.45"/><line x1="543.3" y1="205" x2="543.3" y2="365" stroke="#1e293b" stroke-width="1" opacity="0.45"/><line x1="616.7" y1="205" x2="616.7" y2="365" stroke="#1e293b" stroke-width="1" opacity="0.45"/><line x1="690.0" y1="205" x2="690.0" y2="365" stroke="#1e293b" stroke-width="1" opacity="0.45"/><line x1="763.3" y1="205" x2="763.3" y2="365" stroke="#1e293b" stroke-width="1" opacity="0.45"/><line x1="836.7" y1="205" x2="836.7" y2="365" stroke="#1e293b" stroke-width="1" opacity="0.45"/><line x1="910.0" y1="205" x2="910.0" y2="365" stroke="#1e293b" stroke-width="1" opacity="0.45"/><line x1="983.3" y1="205" x2="983.3" y2="365" stroke="#1e293b" stroke-width="1" opacity="0.45"/><line x1="1056.7" y1="205" x2="1056.7" y2="365" stroke="#1e293b" stroke-width="1" opacity="0.45"/><line x1="1130.0" y1="205" x2="1130.0" y2="365" stroke="#1e293b" stroke-width="1" opacity="0.45"/><polyline fill="none" stroke="#34d399" stroke-width="3" points="470.0,356.7 543.3,357.1 616.7,344.6 690.0,347.5 763.3,356.3 836.7,344.6 910.0,340.9 983.3,232.4 1056.7,311.8 1130.0,205.0"/><polyline fill="none" stroke="#fbbf24" stroke-width="3" points="470.0,292.5 543.3,289.0 616.7,282.9 690.0,280.3 763.3,277.7 836.7,272.7 910.0,270.3 983.3,248.9 1056.7,232.6 1130.0,205.0"/><circle cx="470.0" cy="356.7" r="4" fill="#34d399"/><circle cx="470.0" cy="292.5" r="4" fill="#fbbf24"/><text x="470.0" y="387" text-anchor="middle" fill="#94a3b8" font-size="11" font-family="JetBrains Mono, monospace">04-18</text><circle cx="543.3" cy="357.1" r="4" fill="#34d399"/><circle cx="543.3" cy="289.0" r="4" fill="#fbbf24"/><text x="543.3" y="387" text-anchor="middle" fill="#94a3b8" font-size="11" font-family="JetBrains Mono, monospace">04-19</text><circle cx="616.7" cy="344.6" r="4" fill="#34d399"/><circle cx="616.7" cy="282.9" r="4" fill="#fbbf24"/><text x="616.7" y="387" text-anchor="middle" fill="#94a3b8" font-size="11" font-family="JetBrains Mono, monospace">04-19</text><circle cx="690.0" cy="347.5" r="4" fill="#34d399"/><circle cx="690.0" cy="280.3" r="4" fill="#fbbf24"/><text x="690.0" y="387" text-anchor="middle" fill="#94a3b8" font-size="11" font-family="JetBrains Mono, monospace">04-19</text><circle cx="763.3" cy="356.3" r="4" fill="#34d399"/><circle cx="763.3" cy="277.7" r="4" fill="#fbbf24"/><text x="763.3" y="387" text-anchor="middle" fill="#94a3b8" font-size="11" font-family="JetBrains Mono, monospace">04-19</text><circle cx="836.7" cy="344.6" r="4" fill="#34d399"/><circle cx="836.7" cy="272.7" r="4" fill="#fbbf24"/><text x="836.7" y="387" text-anchor="middle" fill="#94a3b8" font-size="11" font-family="JetBrains Mono, monospace">04-19</text><circle cx="910.0" cy="340.9" r="4" fill="#34d399"/><circle cx="910.0" cy="270.3" r="4" fill="#fbbf24"/><text x="910.0" y="387" text-anchor="middle" fill="#94a3b8" font-size="11" font-family="JetBrains Mono, monospace">04-20</text><circle cx="983.3" cy="232.4" r="4" fill="#34d399"/><circle cx="983.3" cy="248.9" r="4" fill="#fbbf24"/><text x="983.3" y="387" text-anchor="middle" fill="#94a3b8" font-size="11" font-family="JetBrains Mono, monospace">04-21</text><circle cx="1056.7" cy="311.8" r="4" fill="#34d399"/><circle cx="1056.7" cy="232.6" r="4" fill="#fbbf24"/><text x="1056.7" y="387" text-anchor="middle" fill="#94a3b8" font-size="11" font-family="JetBrains Mono, monospace">04-21</text><circle cx="1130.0" cy="205.0" r="4" fill="#34d399"/><circle cx="1130.0" cy="205.0" r="4" fill="#fbbf24"/><text x="1130.0" y="387" text-anchor="middle" fill="#94a3b8" font-size="11" font-family="JetBrains Mono, monospace">04-22</text><rect x="470" y="378" width="12" height="12" rx="3" fill="#34d399"/><text x="490" y="388" fill="#e2e8f0" font-size="12" font-family="JetBrains Mono, monospace">processed repos per run</text><rect x="690" y="378" width="12" height="12" rx="3" fill="#fbbf24"/><text x="710" y="388" fill="#e2e8f0" font-size="12" font-family="JetBrains Mono, monospace">remaining frontier after run</text><rect x="40" y="440" width="1120" height="330" rx="18" fill="#0f172a" stroke="#1e293b"/><text x="64" y="478" fill="#e2e8f0" font-size="18" font-family="JetBrains Mono, monospace">Latest 10 discovery runs</text><text x="64" y="502" fill="#94a3b8" font-size="12" font-family="JetBrains Mono, monospace">rose = API stop, violet = budget stop, slate = clean finish</text><text x="64" y="536" fill="#94a3b8" font-size="12" font-family="JetBrains Mono, monospace">run</text><text x="280" y="536" fill="#94a3b8" font-size="12" font-family="JetBrains Mono, monospace">processed</text><text x="410" y="536" fill="#94a3b8" font-size="12" font-family="JetBrains Mono, monospace">pending</text><text x="520" y="536" fill="#94a3b8" font-size="12" font-family="JetBrains Mono, monospace">batches</text><text x="620" y="536" fill="#94a3b8" font-size="12" font-family="JetBrains Mono, monospace">stop</text><line x1="64" y1="544" x2="1130" y2="544" stroke="#1e293b"/><circle cx="72" cy="570" r="4" fill="#94a3b8"/><text x="84" y="574" fill="#e2e8f0" font-size="12" font-family="JetBrains Mono, monospace">04-18 18:48</text><text x="280" y="574" fill="#e2e8f0" font-size="12" font-family="JetBrains Mono, monospace">20</text><text x="410" y="574" fill="#e2e8f0" font-size="12" font-family="JetBrains Mono, monospace">334</text><text x="520" y="574" fill="#e2e8f0" font-size="12" font-family="JetBrains Mono, monospace">0</text><text x="620" y="574" fill="#e2e8f0" font-size="12" font-family="JetBrains Mono, monospace">complete</text><circle cx="72" cy="588" r="4" fill="#94a3b8"/><text x="84" y="592" fill="#e2e8f0" font-size="12" font-family="JetBrains Mono, monospace">04-19 01:08</text><text x="280" y="592" fill="#e2e8f0" font-size="12" font-family="JetBrains Mono, monospace">19</text><text x="410" y="592" fill="#e2e8f0" font-size="12" font-family="JetBrains Mono, monospace">350</text><text x="520" y="592" fill="#e2e8f0" font-size="12" font-family="JetBrains Mono, monospace">0</text><text x="620" y="592" fill="#e2e8f0" font-size="12" font-family="JetBrains Mono, monospace">complete</text><circle cx="72" cy="606" r="4" fill="#a78bfa"/><text x="84" y="610" fill="#e2e8f0" font-size="12" font-family="JetBrains Mono, monospace">04-19 02:42</text><text x="280" y="610" fill="#e2e8f0" font-size="12" font-family="JetBrains Mono, monospace">49</text><text x="410" y="610" fill="#e2e8f0" font-size="12" font-family="JetBrains Mono, monospace">378</text><text x="520" y="610" fill="#e2e8f0" font-size="12" font-family="JetBrains Mono, monospace">3</text><text x="620" y="610" fill="#e2e8f0" font-size="12" font-family="JetBrains Mono, monospace">budget</text><circle cx="72" cy="624" r="4" fill="#a78bfa"/><text x="84" y="628" fill="#e2e8f0" font-size="12" font-family="JetBrains Mono, monospace">04-19 04:47</text><text x="280" y="628" fill="#e2e8f0" font-size="12" font-family="JetBrains Mono, monospace">42</text><text x="410" y="628" fill="#e2e8f0" font-size="12" font-family="JetBrains Mono, monospace">390</text><text x="520" y="628" fill="#e2e8f0" font-size="12" font-family="JetBrains Mono, monospace">3</text><text x="620" y="628" fill="#e2e8f0" font-size="12" font-family="JetBrains Mono, monospace">budget</text><circle cx="72" cy="642" r="4" fill="#a78bfa"/><text x="84" y="646" fill="#e2e8f0" font-size="12" font-family="JetBrains Mono, monospace">04-19 17:36</text><text x="280" y="646" fill="#e2e8f0" font-size="12" font-family="JetBrains Mono, monospace">21</text><text x="410" y="646" fill="#e2e8f0" font-size="12" font-family="JetBrains Mono, monospace">402</text><text x="520" y="646" fill="#e2e8f0" font-size="12" font-family="JetBrains Mono, monospace">2</text><text x="620" y="646" fill="#e2e8f0" font-size="12" font-family="JetBrains Mono, monospace">budget</text><circle cx="72" cy="660" r="4" fill="#a78bfa"/><text x="84" y="664" fill="#e2e8f0" font-size="12" font-family="JetBrains Mono, monospace">04-19 17:42</text><text x="280" y="664" fill="#e2e8f0" font-size="12" font-family="JetBrains Mono, monospace">49</text><text x="410" y="664" fill="#e2e8f0" font-size="12" font-family="JetBrains Mono, monospace">425</text><text x="520" y="664" fill="#e2e8f0" font-size="12" font-family="JetBrains Mono, monospace">3</text><text x="620" y="664" fill="#e2e8f0" font-size="12" font-family="JetBrains Mono, monospace">budget</text><circle cx="72" cy="678" r="4" fill="#a78bfa"/><text x="84" y="682" fill="#e2e8f0" font-size="12" font-family="JetBrains Mono, monospace">04-20 03:16</text><text x="280" y="682" fill="#e2e8f0" font-size="12" font-family="JetBrains Mono, monospace">58</text><text x="410" y="682" fill="#e2e8f0" font-size="12" font-family="JetBrains Mono, monospace">436</text><text x="520" y="682" fill="#e2e8f0" font-size="12" font-family="JetBrains Mono, monospace">4</text><text x="620" y="682" fill="#e2e8f0" font-size="12" font-family="JetBrains Mono, monospace">budget</text><circle cx="72" cy="696" r="4" fill="#fb7185"/><text x="84" y="700" fill="#e2e8f0" font-size="12" font-family="JetBrains Mono, monospace">04-21 11:24</text><text x="280" y="700" fill="#e2e8f0" font-size="12" font-family="JetBrains Mono, monospace">319</text><text x="410" y="700" fill="#e2e8f0" font-size="12" font-family="JetBrains Mono, monospace">535</text><text x="520" y="700" fill="#e2e8f0" font-size="12" font-family="JetBrains Mono, monospace">19</text><text x="620" y="700" fill="#e2e8f0" font-size="12" font-family="JetBrains Mono, monospace">api</text><circle cx="72" cy="714" r="4" fill="#fb7185"/><text x="84" y="718" fill="#e2e8f0" font-size="12" font-family="JetBrains Mono, monospace">04-21 18:51</text><text x="280" y="718" fill="#e2e8f0" font-size="12" font-family="JetBrains Mono, monospace">128</text><text x="410" y="718" fill="#e2e8f0" font-size="12" font-family="JetBrains Mono, monospace">610</text><text x="520" y="718" fill="#e2e8f0" font-size="12" font-family="JetBrains Mono, monospace">8</text><text x="620" y="718" fill="#e2e8f0" font-size="12" font-family="JetBrains Mono, monospace">api</text><circle cx="72" cy="732" r="4" fill="#fb7185"/><text x="84" y="736" fill="#e2e8f0" font-size="12" font-family="JetBrains Mono, monospace">04-22 01:04</text><text x="280" y="736" fill="#e2e8f0" font-size="12" font-family="JetBrains Mono, monospace">385</text><text x="410" y="736" fill="#e2e8f0" font-size="12" font-family="JetBrains Mono, monospace">737</text><text x="520" y="736" fill="#e2e8f0" font-size="12" font-family="JetBrains Mono, monospace">23</text><text x="620" y="736" fill="#e2e8f0" font-size="12" font-family="JetBrains Mono, monospace">api</text><text x="64" y="742" fill="#94a3b8" font-size="12" font-family="JetBrains Mono, monospace">Snapshot time: 2026-04-22T01:04:16.609102+00:00</text></svg>